<svg width="640" height="384" viewBox="0 0 640 384" xmlns="http://www.w3.org/2000/svg"><title>adminer-logo</title><defs><linearGradient x1="50%" y1="22.651%" x2="50%" y2="100%" id="a"><stop stop-color="#C4D6F4" offset="0%"/><stop stop-color="#7C9DCC" offset="100%"/></linearGradient></defs><g fill="none" fill-rule="evenodd"><path d="M134.615 159.239c-2.188-8.59-18.381-17.036-46.674-17.036-28.271 0-44.463 8.435-46.668 17.019-.17.33-.273.7-.273 1.097v78.028c0 .748.344 1.407.873 1.855 3.745 7.98 19.621 15.36 46.068 15.36 26.454 0 42.332-7.384 46.072-15.368a2.417 2.417 0 0 0 .865-1.846v-1.778l.002-.043-.002-.024v-25.37l.002-.042-.002-.024v-24.86l.002-.042-.002-.025v-24.859l.002-.043-.002-.044v-.875c0-.39-.1-.753-.263-1.08zM130 211.12c-.051 6.689-17.308 14.128-42.06 14.128-24.787 0-42.061-7.461-42.061-14.158 0-.009-.003-.016-.003-.025v-16.294c6.953 5.846 21.229 10.428 42.064 10.428 20.833 0 35.105-4.58 42.06-10.424v16.345zm0-24.926c-.051 6.688-17.309 14.128-42.06 14.128-24.787 0-42.061-7.461-42.061-14.159 0-.008-.003-.015-.003-.024v-16.294c6.953 5.845 21.229 10.427 42.064 10.427 20.833 0 35.105-4.579 42.06-10.423v16.345zm-42.06-39.114c24.751 0 42.009 7.44 42.06 14.128v.06c-.051 6.688-17.308 14.128-42.06 14.128-24.787 0-42.061-7.462-42.061-14.158S63.154 147.08 87.94 147.08zm0 103.604c-24.787 0-42.061-7.462-42.061-14.157 0-.009-.003-.016-.003-.024v-16.805c6.953 5.847 21.229 10.428 42.064 10.428 20.833 0 35.105-4.58 42.06-10.424v16.854c-.051 6.69-17.309 14.128-42.06 14.128z" stroke="#005982" fill="#005982" fill-rule="nonzero"/><path fill="red" fill-rule="nonzero" d="M163.105 166.324l-22.212-18.719 22.212-18.686 5.142 5.207L151.9 147.54l16.347 13.578zM206.443 133.303c0 1.845-.28 3.499-.84 4.96-.56 1.461-1.363 2.724-2.407 3.79-1.043 1.066-2.301 1.928-3.773 2.587-1.472.659-3.12 1.11-4.943 1.35l-.33 6.197h-6.888l-.593-12.392h4.779c1.076 0 2.004-.153 2.784-.46.78-.308 1.417-.726 1.912-1.253a4.914 4.914 0 0 0 1.087-1.83 6.89 6.89 0 0 0 .346-2.191 6.575 6.575 0 0 0-.675-2.95c-.45-.911-1.154-1.713-2.11-2.405-.955-.693-2.17-1.236-3.641-1.632-1.472-.395-3.241-.593-5.306-.593h-1.944V119h2.273c3.384 0 6.339.401 8.866 1.203 2.526.802 4.635 1.867 6.327 3.197 1.692 1.33 2.96 2.85 3.807 4.564.845 1.714 1.269 3.493 1.269 5.339zm-10.283 27.749c0 .724-.143 1.406-.428 2.043a5.587 5.587 0 0 1-1.154 1.68 5.257 5.257 0 0 1-1.713 1.137 5.432 5.432 0 0 1-2.11.412 5.305 5.305 0 0 1-3.79-1.548 5.564 5.564 0 0 1-1.153-1.681 4.936 4.936 0 0 1-.428-2.043c0-.725.143-1.406.428-2.044a5.581 5.581 0 0 1 1.154-1.68 5.3 5.3 0 0 1 3.79-1.55c.746 0 1.45.138 2.109.413.659.274 1.23.654 1.713 1.137a5.603 5.603 0 0 1 1.154 1.68c.285.638.428 1.319.428 2.044z"/><path d="M208.895 92.625h-20.37l-8.4 18.375H164.06l34.44-70.77h19.425L226.22 111h-15.855l-1.47-18.375zm-15.96-11.55h15.33L206.9 65.85c-.315-3.885-.735-9.555-1.05-13.86h-.21c-1.785 4.305-3.78 9.765-5.67 13.86l-7.035 15.225zm85.47-44.625h15.12l-10.395 54.6c-1.26 6.615-2.205 13.86-2.415 19.95h-13.86l.735-8.295h-.21c-4.515 6.825-10.815 9.45-16.8 9.45-8.715 0-15.96-6.93-15.96-19.425 0-17.85 12.915-34.23 32.34-34.23 2.1 0 4.83.315 7.035 1.155l4.41-23.205zm-9.24 49.14l2.625-13.86c-1.155-.945-3.465-1.785-5.985-1.785-9.03 0-15.435 10.5-15.435 20.37 0 6.195 2.73 9.66 7.14 9.66 4.305 0 9.66-4.62 11.655-14.385zM306.65 111h-14.595l6.405-34.65a452.313 452.313 0 0 0 2.625-16.695h13.02l-.945 8.295h.21c4.62-6.615 10.92-9.45 17.535-9.45 8.19 0 11.76 5.145 12.18 9.66 4.62-6.615 11.025-9.66 17.64-9.66 7.98 0 12.6 5.04 12.6 13.755 0 2.205-.42 6.195-.945 8.82L366.815 111H352.22l5.145-28.035c.42-2.1.735-4.305.735-6.3 0-3.57-1.575-6.09-5.145-6.09-5.04 0-9.975 6.825-11.97 17.115L336.68 111h-14.595l5.25-28.245c.42-2.1.735-4.095.735-5.88 0-3.465-1.155-6.3-4.83-6.3-5.145 0-10.5 7.245-12.39 17.325l-4.2 23.1zm87.78 0l9.765-51.345h-15.12L379.31 111h15.12zm4.095-57.75c4.83 0 8.925-3.15 8.925-8.505 0-4.515-3.15-7.455-7.56-7.455-4.62 0-8.61 3.465-8.715 8.61 0 4.515 3.15 7.35 7.35 7.35zm23.73 57.75l4.305-22.785c2.1-11.34 7.875-17.535 12.81-17.535 3.78 0 5.04 2.52 5.04 6.09 0 1.89-.21 3.99-.525 5.775L438.53 111h15.12l5.67-29.82c.42-2.52.84-6.405.84-8.715 0-8.82-4.725-13.965-13.125-13.965-6.825 0-13.23 2.94-18.06 9.66h-.21l1.05-8.505h-13.44c-.63 4.515-1.47 10.185-2.73 16.695l-6.51 34.65h15.12zm85.89-13.86l1.05 10.92c-5.985 3.045-13.44 3.99-19.11 3.99-14.7 0-22.26-8.295-22.26-21.63 0-15.645 11.34-31.92 29.925-31.92 10.395 0 17.85 5.775 17.85 15.33 0 13.125-12.705 17.85-33.285 17.325 0 1.47.525 3.78 1.575 5.25 1.995 2.625 5.46 3.99 9.87 3.99 5.565 0 10.29-1.26 14.385-3.255zm-6.72-23.205c0-2.625-2.1-4.41-5.565-4.41-7.035 0-11.025 5.775-12.075 10.605 11.76.105 17.64-1.575 17.64-6.195zM533.975 111l3.57-19.11c1.89-10.08 6.405-18.69 16.065-18.69.84 0 1.68 0 2.415.105l2.94-14.7c-.945-.105-1.89-.105-2.835-.105-7.035 0-12.81 4.83-16.38 11.655h-.315c.315-3.57.63-7.035.945-10.5h-13.125c-.525 4.41-1.155 13.02-2.625 20.79L518.855 111h15.12z" stroke="#3C5A84" stroke-width="3" fill="url(#a)" transform="translate(41 119)"/></g></svg>